<?xml version="1.0" standalone="no"?>
<!DOCTYPE svg PUBLIC "-//W3C//DTD SVG 20010904//EN"
 "http://www.w3.org/TR/2001/REC-SVG-20010904/DTD/svg10.dtd">
<svg version="1.0" xmlns="http://www.w3.org/2000/svg"
 width="512.000000pt" height="512.000000pt" viewBox="0 0 512.000000 512.000000"
 preserveAspectRatio="xMidYMid meet">

<g transform="translate(0.000000,512.000000) scale(0.100000,-0.100000)"
fill="#000000" stroke="none">
<path d="M2358 5110 c-145 -23 -288 -77 -416 -156 -101 -63 -263 -225 -326
-326 -79 -129 -138 -286 -152 -409 l-7 -59 -237 0 c-284 0 -315 -4 -382 -44
-135 -80 -160 -269 -51 -381 20 -21 55 -46 77 -56 39 -18 105 -19 1646 -19
1543 0 1607 1 1645 19 50 23 109 84 130 133 8 21 15 62 15 93 0 98 -48 178
-133 223 l-52 27 -276 3 -275 4 -12 76 c-31 215 -150 434 -320 594 -195 183
-419 275 -687 283 -71 2 -156 0 -187 -5z m333 -522 c93 -34 147 -68 213 -134
63 -63 116 -152 140 -233 9 -30 16 -56 16 -58 0 -2 -247 -3 -550 -3 -302 0
-550 1 -550 3 0 2 7 28 16 58 38 130 147 266 264 328 139 75 312 89 451 39z"/>
<path d="M918 3251 c-60 -12 -129 -61 -163 -115 l-30 -49 -3 -1171 c-3 -1155
-2 -1172 18 -1262 63 -277 274 -513 543 -605 45 -15 111 -33 147 -38 89 -15
2071 -15 2160 0 335 53 610 309 690 641 19 80 20 119 20 1246 0 1021 -2 1167
-15 1199 -41 98 -125 155 -230 156 -100 0 -182 -51 -227 -141 l-23 -47 -5
-1155 -5 -1155 -22 -48 c-44 -95 -113 -156 -212 -187 -61 -19 -90 -20 -1051
-20 -961 0 -990 1 -1051 20 -99 31 -168 92 -212 187 l-22 48 -5 1155 c-6 1276
0 1184 -69 1263 -55 62 -151 94 -233 78z"/>
<path d="M1992 2494 c-85 -42 -134 -123 -135 -218 0 -93 19 -125 165 -273
l132 -133 -131 -133 c-143 -144 -164 -178 -164 -268 -1 -143 104 -250 245
-250 36 0 80 7 102 16 23 9 91 68 171 147 l133 132 133 -132 c80 -79 148 -138
171 -147 22 -9 66 -16 102 -16 139 0 246 106 247 245 0 93 -19 125 -165 273
l-132 133 132 133 c145 147 164 179 164 273 1 92 -43 167 -125 214 -42 24 -64
30 -112 30 -110 0 -126 -9 -277 -158 l-139 -136 -127 127 c-144 143 -183 166
-278 167 -45 0 -73 -6 -112 -26z"/>
</g>
</svg>
