<?xml version="1.0" standalone="no"?>
<!DOCTYPE svg PUBLIC "-//W3C//DTD SVG 20010904//EN"
 "http://www.w3.org/TR/2001/REC-SVG-20010904/DTD/svg10.dtd">
<svg version="1.0" xmlns="http://www.w3.org/2000/svg"
 width="512.000000pt" height="512.000000pt" viewBox="0 0 512.000000 512.000000"
 preserveAspectRatio="xMidYMid meet">

<g transform="translate(0.000000,512.000000) scale(0.100000,-0.100000)"
fill="#000000" stroke="none">
<path d="M2280 4339 c-719 -88 -1380 -456 -1868 -1039 -185 -221 -394 -567
-408 -675 -8 -54 26 -105 82 -124 36 -13 43 -12 84 7 25 12 88 54 140 93 571
425 1150 719 1657 840 135 32 138 32 190 -23 126 -131 84 -345 -82 -424 -89
-42 -214 -26 -282 38 -22 20 -23 20 -30 2 -5 -10 -8 -89 -7 -174 1 -141 3
-162 28 -235 75 -222 226 -395 426 -489 222 -105 478 -105 700 0 162 76 302
215 379 377 63 130 75 190 76 357 0 125 -3 156 -23 220 -32 100 -91 212 -153
290 l-51 63 38 -8 c21 -3 97 -25 168 -47 446 -137 915 -388 1474 -791 73 -52
145 -98 161 -102 72 -16 146 55 137 130 -11 93 -203 421 -363 620 -472 587
-1112 969 -1808 1081 -118 19 -550 28 -665 13z"/>
<path d="M634 2200 c-31 -12 -54 -49 -54 -86 0 -36 94 -227 161 -325 180 -268
451 -531 719 -699 196 -123 473 -236 685 -279 174 -35 288 -44 485 -38 193 6
306 23 479 72 493 138 967 490 1263 935 89 134 168 292 168 335 0 68 -69 112
-129 80 -17 -8 -81 -52 -142 -96 -457 -332 -904 -552 -1289 -634 -672 -143
-1314 50 -2143 644 -128 92 -164 108 -203 91z"/>
</g>
</svg>
