<?xml version="1.0" standalone="no"?>
<!DOCTYPE svg PUBLIC "-//W3C//DTD SVG 20010904//EN"
 "http://www.w3.org/TR/2001/REC-SVG-20010904/DTD/svg10.dtd">
<svg version="1.0" xmlns="http://www.w3.org/2000/svg"
 width="512.000000pt" height="512.000000pt" viewBox="0 0 512.000000 512.000000"
 preserveAspectRatio="xMidYMid meet">

<g transform="translate(0.000000,512.000000) scale(0.100000,-0.100000)"
fill="#000000" stroke="none">
<path d="M1770 5105 c-310 -63 -547 -272 -651 -573 l-34 -97 -5 -402 -5 -401
-360 -261 c-198 -144 -370 -273 -382 -286 -12 -14 -28 -43 -34 -65 -26 -87 46
-180 141 -180 56 0 61 3 375 231 132 97 246 179 253 183 9 6 12 -89 12 -461
l-1 -468 -371 -270 c-205 -148 -381 -282 -392 -297 -28 -39 -27 -113 2 -160
40 -64 134 -88 197 -50 17 10 149 105 295 211 l265 193 5 -749 c4 -582 8 -757
19 -788 28 -86 87 -181 151 -245 76 -76 159 -123 266 -150 74 -19 114 -20
1044 -20 930 0 970 1 1044 20 43 11 105 34 139 52 84 45 183 146 229 233 70
134 68 111 68 919 0 399 2 726 5 726 2 0 123 -86 267 -192 145 -105 277 -199
293 -210 63 -38 157 -14 197 50 27 44 29 118 4 157 -18 28 -131 113 -529 400
l-236 170 0 468 c-1 372 2 467 12 461 6 -4 120 -86 252 -183 314 -228 319
-231 375 -231 95 0 167 92 141 181 -7 22 -24 53 -39 69 -15 15 -187 144 -382
285 l-355 257 -5 402 -5 401 -33 95 c-80 230 -227 398 -437 500 -184 89 -130
84 -980 86 -592 2 -764 0 -815 -11z m1260 -367 c1 -174 49 -299 159 -409 112
-112 205 -147 414 -156 l137 -6 0 -203 c0 -112 -2 -204 -5 -204 -3 0 -51 13
-107 29 -135 38 -319 75 -493 100 -571 82 -1147 41 -1732 -125 l-23 -6 0 204
0 205 138 6 c208 9 301 44 413 156 110 110 158 235 159 409 l0 82 470 0 470 0
0 -82z m-1242 -20 c-9 -172 -80 -238 -267 -246 l-103 -5 7 24 c29 91 145 212
259 269 110 56 109 57 104 -42z m1648 43 c112 -56 230 -180 259 -270 l7 -24
-103 5 c-187 8 -258 74 -267 246 -5 99 -6 98 104 43z m-437 -1156 c73 -9 181
-25 238 -35 104 -19 325 -70 331 -76 2 -1 -85 -103 -194 -226 -108 -123 -201
-227 -205 -232 -4 -5 -53 3 -111 17 -190 48 -290 60 -493 61 -206 0 -280 -9
-478 -56 -71 -16 -132 -26 -136 -22 -4 5 -97 109 -205 232 -109 123 -196 225
-194 226 1 2 64 18 138 35 164 38 338 67 485 81 61 5 128 12 150 14 93 9 548
-4 674 -19z m-1420 -600 l191 -216 0 -558 0 -558 -171 -194 c-94 -107 -182
-205 -195 -219 l-24 -25 0 993 c0 545 2 992 4 992 3 0 90 -97 195 -215z m2159
-1271 l-3 -497 -192 218 -193 218 0 558 0 558 193 218 192 217 3 -497 c1 -273
1 -720 0 -993z m-928 1066 c36 -6 104 -20 153 -31 l87 -21 0 -513 0 -514 -40
-11 c-22 -5 -58 -15 -79 -20 -212 -55 -540 -51 -775 10 -44 11 -81 20 -83 20
-1 0 -3 231 -3 513 l0 514 88 21 c82 20 176 36 267 46 63 7 313 -3 385 -14z
m-719 -1394 c308 -75 652 -74 954 4 103 27 111 28 126 12 9 -9 89 -99 178
-199 l161 -182 -38 -11 c-76 -21 -341 -69 -477 -87 -199 -25 -673 -25 -870 1
-139 18 -391 63 -472 85 l-43 12 178 199 c97 110 182 198 188 196 6 -2 58 -16
115 -30z m-531 -661 c708 -179 1444 -165 2158 41 l22 6 0 -138 c0 -125 -3
-144 -24 -189 -30 -66 -89 -121 -154 -145 -51 -19 -80 -20 -1002 -20 -922 0
-951 1 -1002 20 -65 24 -124 79 -154 145 -21 45 -24 64 -24 189 l0 138 23 -6
c12 -4 83 -22 157 -41z"/>
</g>
</svg>
