<?xml version="1.0" standalone="no"?>
<!DOCTYPE svg PUBLIC "-//W3C//DTD SVG 20010904//EN"
 "http://www.w3.org/TR/2001/REC-SVG-20010904/DTD/svg10.dtd">
<svg version="1.0" xmlns="http://www.w3.org/2000/svg"
 width="512.000000pt" height="512.000000pt" viewBox="0 0 512.000000 512.000000"
 preserveAspectRatio="xMidYMid meet">

<g transform="translate(0.000000,512.000000) scale(0.100000,-0.100000)"
fill="#000000" stroke="none">
<path d="M3663 5106 c-66 -21 -129 -63 -169 -110 -33 -40 -41 -44 -93 -49 -32
-2 -75 -14 -97 -25 -48 -25 -113 -88 -120 -119 l-6 -23 -243 0 c-216 0 -250
-2 -308 -20 -117 -36 -217 -153 -233 -272 l-7 -48 -537 0 c-319 0 -559 -4
-590 -10 -110 -21 -218 -87 -274 -169 -16 -22 -92 -184 -170 -358 l-142 -318
-209 -5 c-235 -6 -247 -9 -316 -87 -44 -51 -59 -92 -59 -167 0 -86 37 -158
104 -203 59 -40 103 -53 184 -53 73 0 73 4 18 -110 -29 -61 -34 -65 -77 -76
-116 -29 -226 -123 -282 -241 l-32 -68 -3 -749 c-2 -496 1 -767 8 -800 31
-148 148 -281 283 -321 l42 -12 6 -179 c6 -188 13 -224 63 -309 34 -57 117
-132 179 -160 87 -41 141 -47 390 -43 214 4 236 6 290 27 112 44 201 138 248
259 18 47 22 85 27 225 l5 167 422 0 422 0 7 -48 c16 -119 116 -236 233 -272
64 -20 89 -20 1128 -20 1039 0 1064 0 1128 20 84 26 164 96 204 178 l28 57 0
1965 0 1965 -28 57 c-40 82 -120 152 -204 178 -58 18 -92 20 -309 20 -199 0
-244 3 -244 14 0 22 -80 106 -122 127 -23 12 -66 23 -97 26 -52 5 -59 9 -99
54 -84 95 -239 141 -349 105z m164 -176 c30 -13 52 -33 72 -67 50 -80 55 -83
144 -83 74 0 80 -2 108 -29 37 -38 39 -82 4 -116 l-24 -25 -376 0 -376 0 -24
25 c-37 36 -34 86 6 119 27 23 40 26 107 26 87 1 100 7 129 65 25 48 47 69 93
89 47 20 87 19 137 -4z m-627 -372 c22 -32 54 -64 84 -83 l49 -30 422 0 422 0
49 30 c30 19 62 51 84 83 l34 52 231 0 c261 0 288 -6 341 -76 l29 -37 0 -1937
0 -1937 -29 -37 c-16 -21 -47 -47 -70 -57 -39 -18 -87 -19 -1091 -19 -1000 0
-1052 1 -1090 19 -46 21 -79 54 -94 94 -8 20 -11 609 -11 1937 0 1328 3 1917
11 1937 15 40 48 73 94 94 35 16 68 19 270 19 l231 0 34 -52z m-810 -973 l0
-685 -916 0 c-729 0 -915 3 -911 13 62 151 545 1222 563 1247 30 45 83 80 142
96 35 9 185 13 585 13 l537 1 0 -685z m-1829 -257 l-38 -83 -100 -3 c-96 -3
-102 -1 -132 24 -42 35 -44 92 -5 123 24 19 40 21 170 21 l143 0 -38 -82z
m1829 -853 l0 -254 -377 -3 c-366 -3 -379 -4 -418 -25 -47 -25 -95 -74 -121
-123 -17 -31 -19 -64 -22 -282 l-3 -248 -640 0 -640 0 3 503 c3 493 3 503 25
542 28 53 78 99 133 124 44 20 61 21 1053 21 l1007 0 0 -255z m0 -510 l0 -85
-385 0 -385 0 0 53 c0 57 18 93 54 107 11 5 177 9 369 9 l347 1 0 -85z m0
-340 l0 -85 -385 0 -385 0 0 85 0 85 385 0 385 0 0 -85z m-5 -345 l0 -85 -147
-3 c-145 -2 -147 -3 -167 -29 -28 -34 -26 -76 3 -110 24 -28 24 -28 170 -31
l146 -3 0 -85 0 -84 -1012 2 -1013 3 -47 23 c-27 13 -63 42 -82 64 -55 63 -66
111 -66 273 0 78 3 145 7 148 3 4 502 6 1107 5 l1101 -3 0 -85z m-1017 -752
c-5 -179 -23 -235 -92 -294 -67 -58 -115 -66 -363 -62 -246 3 -265 8 -336 87
-53 58 -67 118 -67 283 l0 138 431 0 431 0 -4 -152z"/>
<path d="M2793 4093 c-37 -7 -66 -52 -59 -93 12 -73 -16 -70 595 -70 l548 0
21 23 c23 25 29 75 12 107 -20 38 -56 40 -584 39 -281 -1 -521 -4 -533 -6z"/>
<path d="M4659 4086 c-13 -7 -104 -76 -201 -154 -97 -78 -179 -142 -183 -142
-4 0 -20 11 -37 25 -34 29 -57 31 -97 10 -32 -16 -41 -33 -41 -76 0 -23 13
-44 53 -86 59 -63 104 -87 139 -74 38 14 451 349 471 381 44 70 -32 154 -104
116z"/>
<path d="M2755 3725 c-32 -31 -32 -75 -1 -112 l24 -28 290 0 290 0 26 24 c34
32 36 88 3 119 -23 22 -29 22 -316 22 l-292 0 -24 -25z"/>
<path d="M2772 3233 c-17 -6 -42 -57 -42 -83 0 -12 13 -35 29 -51 l29 -29 532
0 c581 0 582 0 597 58 11 41 5 65 -23 90 l-25 22 -542 -1 c-298 0 -548 -3
-555 -6z"/>
<path d="M4468 3086 l-193 -154 -28 24 c-61 52 -147 20 -147 -54 0 -28 11 -45
62 -98 66 -69 95 -83 135 -65 43 20 464 362 475 386 23 51 -21 115 -79 115
-27 0 -65 -26 -225 -154z"/>
<path d="M2769 2887 c-46 -35 -50 -88 -10 -128 l29 -29 277 0 c331 0 345 4
345 91 0 18 -10 39 -25 54 l-24 25 -288 0 c-211 -1 -292 -4 -304 -13z"/>
<path d="M2759 2361 c-31 -31 -36 -59 -17 -94 25 -47 13 -46 585 -47 l542 0
25 23 c38 34 39 85 1 122 l-24 25 -541 0 -542 0 -29 -29z"/>
<path d="M4655 2378 c-11 -7 -100 -76 -198 -155 l-179 -143 -32 25 c-66 50
-146 17 -146 -60 0 -32 9 -46 64 -101 98 -98 89 -101 360 115 123 98 231 189
240 202 24 35 20 67 -13 100 -31 30 -63 36 -96 17z"/>
<path d="M2759 2021 c-16 -16 -29 -39 -29 -51 0 -29 26 -76 45 -84 9 -3 145
-6 301 -6 l285 0 24 25 c27 27 33 79 12 106 -28 36 -51 39 -332 39 l-277 0
-29 -29z"/>
<path d="M2793 1533 c-37 -7 -66 -52 -59 -93 12 -73 -16 -70 595 -70 l548 0
21 23 c23 25 29 75 12 107 -20 38 -56 40 -584 39 -281 -1 -521 -4 -533 -6z"/>
<path d="M4660 1527 c-14 -7 -104 -77 -202 -155 -97 -78 -179 -142 -183 -142
-4 0 -20 11 -37 25 -34 29 -57 31 -97 10 -32 -16 -41 -33 -41 -76 0 -23 13
-44 53 -86 65 -70 107 -90 146 -70 15 7 126 93 248 191 234 187 246 201 223
260 -6 16 -24 33 -45 41 -41 18 -35 18 -65 2z"/>
<path d="M2755 1165 c-32 -31 -32 -75 -1 -112 l24 -28 290 0 290 0 26 24 c34
32 36 88 3 119 -23 22 -29 22 -316 22 l-292 0 -24 -25z"/>
<path d="M2105 4090 c-25 -10 -930 -750 -967 -790 -54 -58 -20 -140 56 -140
31 0 88 44 525 401 440 359 491 404 497 435 7 41 -14 80 -52 94 -29 12 -32 12
-59 0z"/>
<path d="M659 2456 c-94 -33 -175 -113 -210 -205 -17 -45 -20 -71 -17 -136 6
-116 51 -197 142 -260 196 -134 455 -39 522 191 46 159 -48 346 -202 404 -64
23 -178 27 -235 6z m188 -173 c73 -34 109 -129 79 -208 -43 -112 -179 -147
-266 -68 -49 43 -64 81 -58 144 12 118 135 185 245 132z"/>
</g>
</svg>
