<?xml version="1.0" standalone="no"?>
<!DOCTYPE svg PUBLIC "-//W3C//DTD SVG 20010904//EN"
 "http://www.w3.org/TR/2001/REC-SVG-20010904/DTD/svg10.dtd">
<svg version="1.0" xmlns="http://www.w3.org/2000/svg"
 width="512.000000pt" height="512.000000pt" viewBox="0 0 512.000000 512.000000"
 preserveAspectRatio="xMidYMid meet">

<g transform="translate(0.000000,512.000000) scale(0.100000,-0.100000)"
fill="#000000" stroke="none">
<path d="M310 5101 c-20 -10 -44 -36 -57 -61 -23 -43 -23 -45 -23 -476 0 -296
4 -441 11 -457 11 -24 47 -47 73 -47 7 0 25 9 40 21 l26 20 0 435 0 434 523 0
522 0 140 -141 c77 -77 152 -147 167 -155 23 -12 158 -14 873 -14 l845 0 0
-390 0 -389 -289 -3 c-274 -3 -291 -4 -317 -24 -15 -11 -37 -33 -48 -48 -20
-27 -21 -39 -21 -464 0 -486 -1 -481 68 -522 30 -19 52 -20 320 -20 l287 0 0
-79 0 -80 -282 -3 c-263 -3 -285 -4 -318 -23 -19 -12 -43 -36 -55 -55 -19 -34
-20 -50 -20 -472 0 -425 1 -437 21 -464 11 -15 33 -37 48 -48 26 -20 43 -21
317 -24 l289 -3 0 -155 0 -154 -888 0 -888 0 -35 26 c-136 104 -367 149 -552
108 -84 -18 -231 -87 -252 -117 -35 -49 -3 -117 53 -117 16 0 53 14 83 30 209
116 459 88 634 -72 119 -108 176 -235 178 -393 1 -154 -53 -287 -157 -390 -77
-77 -152 -120 -258 -147 -246 -62 -500 56 -613 286 -70 142 -79 274 -29 424
31 93 30 116 -2 141 -68 53 -118 3 -161 -161 -22 -83 -22 -243 0 -326 10 -35
17 -66 17 -68 0 -2 -45 -4 -100 -4 l-100 0 0 1694 c0 1631 -1 1695 -18 1717
-27 33 -78 30 -109 -5 l-23 -27 2 -1712 c3 -1665 4 -1713 22 -1744 38 -62 75
-73 245 -73 l151 0 93 -94 c79 -81 105 -100 187 -139 103 -50 211 -77 310 -77
131 0 292 51 398 127 l47 33 1550 0 c1519 0 1551 0 1582 20 70 42 68 25 68
516 0 431 -1 443 -21 470 -11 15 -33 37 -48 48 -27 21 -39 21 -622 24 l-594 3
0 154 0 154 594 3 c583 3 595 3 622 24 63 46 69 64 72 210 l4 134 -30 30 c-36
35 -60 38 -95 10 -25 -20 -26 -25 -29 -138 l-3 -117 -905 0 -905 0 0 390 0
390 905 0 905 0 5 -147 c6 -164 12 -181 71 -181 23 0 39 8 56 27 22 26 23 35
23 169 0 78 -5 158 -10 178 -13 48 -56 86 -110 98 -28 7 -257 11 -608 11
l-563 0 3 78 3 77 595 5 c656 6 625 2 667 67 17 25 18 64 18 469 0 431 -1 443
-21 470 -11 15 -33 37 -48 48 -27 21 -39 21 -621 24 l-594 2 -3 420 c-3 405
-4 419 -24 447 -47 64 -34 63 -624 63 l-534 0 -146 144 c-80 80 -158 149 -173
155 -19 8 -303 11 -890 11 -821 0 -864 -1 -897 -19z m1815 -211 l80 -80 -205
0 -205 0 -80 80 -80 80 205 0 205 0 80 -80z m2615 -1550 l0 -390 -910 0 -910
0 0 383 c0 211 3 387 7 390 3 4 413 7 910 7 l903 0 0 -390z m0 -2640 l0 -390
-1459 0 -1459 0 38 75 c52 103 74 198 73 315 0 136 -19 198 -111 383 -2 4 654
7 1457 7 l1461 0 0 -390z"/>
<path d="M3204 3547 c-35 -31 -38 -82 -5 -109 22 -17 55 -18 636 -18 570 0
613 1 628 18 8 9 19 29 22 44 6 22 1 33 -23 58 l-30 30 -601 0 -600 0 -27 -23z"/>
<path d="M3225 3250 c-49 -19 -64 -82 -30 -120 18 -20 30 -20 541 -20 l523 0
20 26 c34 43 26 86 -20 109 -23 13 -107 15 -521 14 -271 0 -502 -4 -513 -9z"/>
<path d="M2198 900 c-24 -25 -29 -36 -23 -58 3 -15 14 -35 22 -44 15 -17 82
-18 1133 -18 1051 0 1118 1 1133 18 8 9 19 29 22 44 6 22 1 33 -23 58 l-30 30
-1102 0 -1102 0 -30 -30z"/>
<path d="M2224 610 c-26 -10 -54 -48 -54 -71 0 -9 9 -28 21 -43 l20 -26 1024
0 1024 0 20 26 c34 43 26 86 -20 109 -24 13 -168 15 -1021 14 -546 0 -1003 -4
-1014 -9z"/>
<path d="M595 4785 c-14 -13 -25 -36 -25 -50 0 -33 42 -75 75 -75 33 0 75 42
75 75 0 33 -42 75 -75 75 -14 0 -37 -11 -50 -25z"/>
<path d="M915 4785 c-14 -13 -25 -36 -25 -50 0 -33 42 -75 75 -75 33 0 75 42
75 75 0 33 -42 75 -75 75 -14 0 -37 -11 -50 -25z"/>
<path d="M1235 4785 c-14 -13 -25 -36 -25 -50 0 -33 41 -75 73 -75 38 0 77 36
77 71 0 37 -40 79 -75 79 -14 0 -37 -11 -50 -25z"/>
<path d="M1232 4216 c-206 -50 -383 -225 -437 -433 -10 -39 -15 -108 -15 -215
0 -145 -2 -160 -22 -195 -20 -32 -23 -52 -23 -133 0 -81 3 -101 23 -133 22
-37 22 -44 22 -357 0 -296 2 -324 20 -372 11 -29 20 -56 20 -60 0 -3 -19 -17
-43 -31 -52 -31 -128 -111 -155 -163 -42 -83 -52 -141 -52 -303 0 -183 9 -211
81 -248 l43 -23 897 2 c889 3 898 3 925 24 62 46 69 65 72 203 2 71 -1 158 -6
195 -21 129 -88 236 -191 303 l-58 37 21 46 c20 42 21 67 26 385 5 306 7 344
24 380 28 59 27 175 -2 239 -20 43 -22 65 -22 206 0 185 -15 251 -81 349 -74
111 -188 180 -334 203 -60 9 -91 20 -128 45 -82 55 -126 63 -351 62 -126 0
-221 -5 -254 -13z m469 -147 c205 -69 206 -362 2 -435 -28 -9 -105 -13 -286
-14 -208 0 -253 -3 -280 -16 -42 -21 -75 -52 -93 -86 -13 -25 -20 -28 -65 -28
l-51 0 4 133 c3 125 5 136 36 198 59 122 162 211 282 243 69 18 400 22 451 5z
m357 -128 c52 -27 116 -93 144 -149 19 -40 23 -66 26 -174 l4 -128 -51 0 -50
0 -12 42 c-17 64 -42 109 -88 153 l-41 41 12 62 c8 43 8 78 1 117 -11 63 -6
67 55 36z m-114 -384 c14 -19 30 -58 36 -87 13 -67 13 -416 0 -494 -20 -122
-100 -231 -210 -283 -47 -23 -71 -28 -166 -31 -173 -6 -272 34 -357 144 -67
87 -77 142 -77 409 0 175 3 235 13 243 7 6 112 12 272 14 292 5 312 9 400 77
28 22 53 40 57 40 4 1 18 -14 32 -32z m-924 -317 l0 -100 -49 0 c-64 0 -91 30
-91 100 0 70 27 100 91 100 l49 0 0 -100z m1229 81 c26 -26 36 -82 21 -125
-14 -43 -35 -56 -89 -56 l-41 0 0 100 0 100 45 0 c31 0 51 -6 64 -19z m-1215
-401 c19 -86 61 -171 115 -232 l42 -47 -3 -113 -3 -113 -85 -32 c-47 -18 -94
-32 -105 -30 -12 1 -28 19 -42 47 -22 43 -23 54 -23 317 l0 273 44 0 44 0 16
-70z m1196 -191 c0 -267 -5 -313 -40 -359 l-19 -25 -100 33 -101 33 0 114 0
114 48 63 c57 75 89 140 103 211 6 29 13 58 15 65 2 7 21 12 49 12 l45 0 0
-261z m-650 -213 c121 0 164 3 198 17 l43 16 -3 -81 -3 -81 -58 -30 c-86 -43
-178 -55 -263 -34 -37 10 -87 28 -111 42 l-43 26 0 79 0 79 43 -17 c33 -13 76
-16 197 -16z m-250 -290 c48 -24 106 -47 128 -51 l40 -6 4 -106 c3 -96 5 -106
27 -124 31 -25 69 -24 98 3 21 20 23 30 23 123 l0 102 56 12 c31 7 92 31 135
53 l79 41 75 -28 75 -27 0 -259 0 -259 -490 0 -490 0 0 259 0 260 53 19 c28
11 59 22 67 25 26 9 30 8 120 -37z m-390 -281 l0 -245 -111 0 -111 0 4 148 c3
136 5 151 30 197 14 28 39 62 55 76 30 28 100 68 121 69 9 0 12 -55 12 -245z
m1340 225 c54 -27 103 -78 131 -136 21 -44 23 -63 24 -189 l0 -140 -107 -3
-108 -3 0 246 c0 163 3 245 10 245 6 0 28 -9 50 -20z"/>
<path d="M3195 2300 c-25 -28 -23 -76 4 -103 l22 -22 610 0 611 0 24 28 c29
34 30 56 3 91 l-20 26 -618 0 c-607 0 -618 0 -636 -20z"/>
<path d="M3195 1990 c-25 -28 -23 -76 4 -103 22 -22 22 -22 519 -25 273 -1
507 0 520 3 32 8 62 41 62 69 0 13 -9 35 -21 50 l-20 26 -523 0 c-511 0 -523
0 -541 -20z"/>
<path d="M1196 979 c-10 -6 -31 -40 -47 -74 -28 -63 -29 -64 -76 -70 -83 -12
-106 -20 -126 -47 -28 -37 -16 -70 45 -127 l51 -48 -13 -76 c-11 -68 -11 -79
4 -102 27 -41 59 -42 137 -4 l69 33 69 -33 c77 -38 110 -37 137 4 14 21 14 33
3 101 l-12 77 51 49 c62 60 72 89 45 126 -20 27 -43 35 -126 47 -47 6 -48 8
-78 68 -16 34 -37 68 -46 75 -20 15 -61 15 -87 1z m64 -259 c11 -11 27 -20 36
-20 14 0 14 -2 0 -22 -9 -12 -16 -30 -16 -40 0 -14 -8 -18 -40 -18 -32 0 -40
4 -40 18 0 10 -6 27 -14 37 -13 18 -11 21 15 32 16 7 29 17 29 23 0 15 8 12
30 -10z"/>
</g>
</svg>
