<?xml version="1.0" standalone="no"?>
<!DOCTYPE svg PUBLIC "-//W3C//DTD SVG 20010904//EN"
 "http://www.w3.org/TR/2001/REC-SVG-20010904/DTD/svg10.dtd">
<svg version="1.0" xmlns="http://www.w3.org/2000/svg"
 width="512.000000pt" height="512.000000pt" viewBox="0 0 512.000000 512.000000"
 preserveAspectRatio="xMidYMid meet">

<g transform="translate(0.000000,512.000000) scale(0.100000,-0.100000)"
fill="#000000" stroke="none">
<path d="M615 4946 c-22 -7 -51 -18 -64 -25 -45 -25 -113 -95 -139 -146 l-27
-50 0 -2165 0 -2165 27 -50 c32 -62 103 -129 166 -158 l47 -22 1525 0 1525 0
56 28 c66 32 132 99 162 165 22 46 22 54 25 719 l3 672 282 3 283 3 66 33 c81
39 139 102 168 179 20 54 20 68 18 946 l-3 892 -27 50 c-33 64 -89 120 -153
153 l-50 27 -292 3 -292 3 -3 337 c-3 321 -4 339 -25 384 -30 66 -96 133 -162
165 l-56 28 -1510 2 c-1194 1 -1518 -1 -1550 -11z m778 -158 c3 -7 37 -92 76
-188 39 -97 81 -183 92 -192 20 -17 63 -18 589 -18 526 0 569 1 588 18 11 9
54 100 95 202 l75 185 359 3 c359 2 359 2 403 -21 30 -16 51 -37 67 -67 23
-42 23 -49 23 -356 l0 -314 -997 -2 -998 -3 -50 -26 c-63 -34 -128 -99 -157
-158 l-23 -46 -3 -892 c-2 -877 -2 -892 18 -946 29 -77 88 -140 168 -179 65
-32 70 -33 219 -37 l153 -3 0 -129 c0 -119 2 -130 22 -149 13 -12 35 -20 57
-20 31 0 49 14 186 150 l151 150 627 0 627 0 0 -360 0 -360 -1610 0 -1610 0 2
1833 3 1832 24 34 c49 68 64 71 462 71 276 0 358 -3 362 -12z m1226 -1304 c37
-47 32 -62 -68 -198 -37 -50 -71 -97 -75 -103 -6 -10 16 -13 97 -13 l105 0 59
80 c65 89 97 109 142 91 28 -12 51 -47 51 -79 0 -10 -11 -34 -25 -55 l-26 -37
65 0 c58 0 67 -3 85 -26 28 -35 26 -67 -3 -101 -24 -27 -27 -28 -145 -31
l-121 -4 -35 -45 c-19 -25 -35 -50 -35 -54 0 -5 37 -9 82 -9 70 0 85 -3 105
-22 23 -21 30 -59 17 -92 -12 -33 -48 -41 -194 -46 l-144 -5 -114 -155 c-110
-151 -138 -179 -175 -180 -26 0 -77 54 -77 83 0 19 85 147 163 245 7 9 -14 12
-99 12 l-109 -1 -55 -75 c-30 -42 -63 -80 -72 -85 -30 -16 -68 -10 -93 16 -30
29 -31 59 -5 103 11 18 20 34 20 36 0 2 -26 6 -57 8 -46 4 -61 10 -80 32 -30
35 -29 71 2 101 23 24 30 25 142 25 l119 0 37 50 c20 27 37 52 37 55 0 3 -32
5 -70 5 -74 0 -123 17 -134 45 -12 32 -6 69 16 92 21 22 28 23 168 23 l146 0
90 122 c158 217 159 218 204 218 30 0 43 -6 59 -26z m1440 0 c12 -15 21 -37
21 -49 0 -13 -37 -74 -85 -140 -47 -64 -85 -118 -85 -121 0 -2 47 -4 104 -4
l105 0 56 79 c78 108 114 123 167 71 25 -25 29 -36 24 -61 -3 -17 -15 -43 -27
-57 l-21 -27 66 -5 c72 -6 92 -18 102 -66 4 -24 0 -37 -19 -60 -25 -29 -26
-29 -149 -32 l-123 -4 -38 -54 -38 -54 87 0 c76 0 91 -3 111 -22 13 -12 23
-33 23 -49 0 -76 -31 -89 -205 -89 l-135 0 -115 -155 c-63 -85 -126 -162 -140
-171 -30 -20 -66 -13 -95 18 -36 39 -26 68 65 192 l85 116 -108 0 -108 0 -54
-76 c-30 -41 -62 -80 -71 -85 -31 -16 -69 -10 -94 16 -31 30 -32 73 -5 108 11
14 20 28 20 31 0 3 -23 6 -51 6 -43 0 -55 5 -80 29 -36 36 -37 73 -4 106 23
24 30 25 142 25 l119 0 37 50 c20 27 37 52 37 55 0 3 -32 5 -70 5 -74 0 -123
17 -134 45 -12 32 -6 69 16 92 21 22 28 23 168 23 l146 0 99 137 c142 195 149
203 195 203 30 0 43 -6 59 -26z"/>
<path d="M2307 2957 l-38 -52 97 -3 c54 -1 103 -1 109 2 7 2 28 27 48 55 l37
51 -108 0 -107 -1 -38 -52z"/>
<path d="M3753 2968 c-16 -24 -33 -49 -37 -55 -6 -10 16 -13 97 -13 l105 0 41
55 42 55 -109 0 -109 0 -30 -42z"/>
</g>
</svg>
